<?xml version="1.0" encoding="UTF-8"?>
<svg width="512px" height="512px" viewBox="0 0 512 512" version="1.1" xmlns="http://www.w3.org/2000/svg" xmlns:xlink="http://www.w3.org/1999/xlink">
    <g id="Page-1" stroke="none" stroke-width="1" fill="none" fill-rule="evenodd">
        <g id="Group">
            <path d="M242.75,32 C255.47632,32 267.681818,37.0564554 276.683708,46.0562915 L417.945,187.317583 C426.943545,196.318182 432,208.52368 432,221.25 L432.000417,275.3303 C427.619578,275.002495 423.157452,275.283644 418.738266,276.21864 L418.398,276.294 L418.288385,275.943687 C415.017553,265.783697 408.487053,257.218287 400.000589,251.369849 L400,221.25 C400,217.010621 398.314865,212.942966 395.316292,209.943708 L254.057583,68.6849998 C251.057034,65.6851353 246.989379,64 242.75,64 L144,64 C126.326888,64 112,78.326888 112,96 L112,416 C112,433.673112 126.326888,448 144,448 L213.266,448 L213.273952,448.013833 L231.582,480 L144,480 C108.653776,480 80,451.346224 80,416 L80,96 C80,60.653776 108.653776,32 144,32 L242.75,32 Z" id="Combined-Shape" fill="currentColor" fill-rule="nonzero"></path>
            <path d="M256,56 L256,176 C256,193.673112 270.326888,208 288,208 L408,208" id="Path" stroke="currentColor" stroke-width="32" stroke-linecap="round" stroke-linejoin="round"></path>
        </g>
        <path d="M354.595904,361.155719 C341.353599,359.827129 328.717925,367.095366 323.026955,379.314673 C317.335986,391.533979 319.817508,406.068124 329.226787,415.626756 C338.636066,425.185388 352.943114,427.7063 364.971494,421.924998 C376.999874,416.143695 384.154545,403.307455 382.846714,389.854955 C381.346443,374.680825 369.532938,362.679804 354.595904,361.155719 L354.595904,361.155719 Z M430.418252,392 C430.398012,395.478281 430.144904,398.951201 429.660661,402.395 L452.046715,420.125 C454.059671,421.809905 454.572596,424.716719 453.25985,427 L432.081979,464 C430.754262,466.260664 428.008527,467.229172 425.575615,466.295 L403.34306,457.255 C400.852661,456.25373 398.030743,456.582448 395.831526,458.13 C392.43846,460.489387 388.872998,462.585404 385.165842,464.4 C382.798988,465.561623 381.161163,467.838002 380.798556,470.47 L377.466148,494.415 C377.014776,497.022957 374.799126,498.943952 372.17787,499 L329.82213,499 C327.24718,498.955015 325.047754,497.112198 324.5289,494.565 L321.201444,470.655 C320.821931,467.9937 319.149328,465.700466 316.74503,464.545 C313.042308,462.740221 309.488893,460.638483 306.118958,458.26 C303.927069,456.720026 301.114405,456.398603 298.637134,457.405 L276.40953,466.44 C273.977814,467.37506 271.232436,466.408788 269.903166,464.15 L248.725296,427.15 C247.410399,424.867103 247.923588,421.958795 249.93843,420.275 L268.858384,405.275 C270.96432,403.586924 272.082162,400.938065 271.829327,398.235 C271.65107,396.15 271.542136,394.07 271.542136,391.985 C271.542136,389.9 271.646119,387.85 271.829327,385.81 C272.054486,383.123697 270.924623,380.503543 268.823723,378.84 L249.913673,363.84 C247.932612,362.148466 247.438055,359.26589 248.74015,357 L269.918021,320 C271.245738,317.739336 273.991473,316.770828 276.424385,317.705 L298.65694,326.745 C301.147339,327.74627 303.969257,327.417552 306.168474,325.87 C309.56154,323.510613 313.127002,321.414596 316.834158,319.6 C319.201012,318.438377 320.838837,316.161998 321.201444,313.53 L324.533852,289.585 C324.985224,286.977043 327.200874,285.056048 329.82213,285 L372.17787,285 C374.75282,285.044985 376.952246,286.887802 377.4711,289.435 L380.798556,313.345 C381.178069,316.0063 382.850672,318.299534 385.25497,319.455 C388.957692,321.259779 392.511107,323.361517 395.881042,325.74 C398.072931,327.279974 400.885595,327.601397 403.362866,326.595 L425.59047,317.56 C428.022186,316.62494 430.767564,317.591212 432.096834,319.85 L453.274704,356.85 C454.589601,359.132897 454.076412,362.041205 452.06157,363.725 L433.141616,378.725 C431.026422,380.407656 429.898888,383.0574 430.145915,385.765 C430.309317,387.835 430.418252,389.915 430.418252,392 L430.418252,392 Z" id="Shape" stroke="currentColor" stroke-width="24" stroke-linecap="round" stroke-linejoin="round"></path>
    </g>
</svg>